<svg width="856" height="854" viewBox="0 0 856 854" fill="none" xmlns="http://www.w3.org/2000/svg">
<g clip-path="url(#clip0_115_384)">
<path d="M428 673.424C563.592 673.424 666.171 562.592 666.171 427C666.171 291.408 563.592 180.576 428 180.576C292.408 180.576 189.829 291.408 189.829 427C189.829 562.592 292.408 673.424 428 673.424ZM428 855C192.187 855 0 662.813 0 427C0 191.187 192.187 -1 428 -1C663.813 -1 856 191.187 856 427C856 662.813 663.813 855 428 855Z" fill="#0000FF"/>
<path d="M322 427C322 487.067 367.933 533 428 533C488.067 533 534 487.067 534 427C534 366.933 488.067 321 428 321C367.933 321 322 366.933 322 427Z" fill="#0000FF"/>
</g>
<defs>
<clipPath id="clip0_115_384">
<rect width="856" height="854" fill="white"/>
</clipPath>
</defs>
</svg>
